<?xml version="1.0" encoding="utf-8"?>
<!-- Generator: Adobe Illustrator 26.1.0, SVG Export Plug-In . SVG Version: 6.00 Build 0)  -->
<svg version="1.1" id="Lager_1" xmlns="http://www.w3.org/2000/svg" xmlns:xlink="http://www.w3.org/1999/xlink" x="0px" y="0px"
	 viewBox="0 0 700 700" style="enable-background:new 0 0 700 700;" xml:space="preserve">
<g>
	<path d="M325.9,276.4c-3.6,0-6.9,1.9-8.8,5.1H102.4c-24.6,0-49.2,1.3-73.7,3.8l-12.4,1.3l12.4,1.3v0c24.5,2.5,49.1,3.8,73.7,3.8
		h149c-2.5,2.8-4.6,5.8-7.4,7.8h0c-2.1,1.5-4.6,2.4-7.2,2.4c-2.6-0.1-5.3-0.6-7.7-1.7c-2.5-0.9-5.2-1.9-8-1.7c-1.4,0.1-2.7,0.4-4,1
		c-0.6,0.3-1.2,0.7-1.6,1.2c-0.5,0.5-0.8,1.1-1.1,1.7c0.3-0.6,0.7-1.1,1.2-1.6c0.5-0.4,1.1-0.8,1.7-1.1c1.2-0.5,2.6-0.8,3.9-0.8
		c2.7,0,5.2,1,7.7,2h0c2.5,1.2,5.2,1.9,8,2.1c2.9,0.1,5.7-0.7,8.1-2.3c2.3-1.6,4.3-3.5,6.1-5.6c1.1-1.3,2.3-2.5,3.6-3.6h21.6
		c2.9,1.8,5.6,3.8,8.1,6.1c2.1,1.9,4.3,3.7,6.6,5.2c2.5,1.6,5.3,2.8,8.2,3.4c5.9,1.3,12.2,0.5,17.6-2.3c3.4-1.8,6.4-4.3,8.7-7.4h0.3
		c5.6,0,10.1-4.5,10.1-10.1C336,280.9,331.4,276.4,325.9,276.4L325.9,276.4z M314,299c-4.2,2.4-9.1,3.3-13.9,2.5
		c-2.4-0.4-4.7-1.2-6.8-2.4c-2.2-1.4-4.3-2.9-6.3-4.5c-1.2-1-2.5-2-3.9-2.9h34c0.6,1,1.4,2,2.3,2.8C317.9,296.2,316.1,297.8,314,299
		L314,299z M325.9,292.1c-2.3,0-4.3-1.4-5.2-3.5c-0.9-2.1-0.4-4.5,1.2-6.1c1.6-1.6,4-2.1,6.1-1.2c2.1,0.9,3.5,2.9,3.5,5.2
		c0,1.5-0.6,2.9-1.6,4C328.8,291.5,327.3,292.1,325.9,292.1z M671.2,285.2L671.2,285.2c-24.5-2.5-49.1-3.8-73.7-3.8H382.8
		c-1.8-3.1-5.1-5.1-8.8-5.1c-3.6,0-7,1.9-8.8,5.1c-1.8,3.1-1.8,7,0,10.1c1.8,3.1,5.1,5.1,8.8,5.1h0.3c2.3,3.1,5.3,5.6,8.7,7.4
		c5.4,2.8,11.6,3.6,17.6,2.3c2.9-0.6,5.7-1.8,8.2-3.4c2.3-1.6,4.5-3.3,6.6-5.2c2.5-2.3,5.2-4.3,8.1-6.1h21.6
		c1.3,1.1,2.5,2.3,3.6,3.6c1.8,2.1,3.9,4,6.1,5.6c2.4,1.6,5.2,2.4,8.1,2.3c2.8-0.2,5.5-0.9,8-2.1c2.5-1,5-2.1,7.7-2
		c1.3,0,2.7,0.3,3.9,0.8c0.6,0.3,1.2,0.7,1.7,1.1c0.5,0.5,0.9,1,1.2,1.6c-0.3-0.6-0.7-1.2-1.1-1.7c-0.5-0.5-1-0.9-1.6-1.2
		c-1.2-0.6-2.6-1-4-1c-2.8-0.2-5.5,0.8-8,1.7c-2.4,1-5,1.6-7.7,1.7c-2.6-0.1-5.1-0.9-7.2-2.4c-2.8-2-4.9-5.1-7.4-7.8h149
		c24.6,0,49.2-1.3,73.7-3.8l12.4-1.3L671.2,285.2z M374.1,292.1c-2.3,0-4.3-1.4-5.2-3.5c-0.9-2.1-0.4-4.5,1.2-6.1s4-2.1,6.1-1.2
		c2.1,0.9,3.5,2.9,3.5,5.2C379.7,289.6,377.2,292.1,374.1,292.1L374.1,292.1z M413,294.5c-2,1.7-4.1,3.2-6.3,4.5
		c-2.1,1.2-4.4,2-6.8,2.4c-4.8,0.8-9.7,0-13.9-2.5c-2.1-1.2-3.9-2.8-5.4-4.7c0.9-0.8,1.7-1.7,2.3-2.8h34
		C415.6,292.5,414.3,293.5,413,294.5L413,294.5z"/>
	<g>
		<defs>
			<polyline id="SVGID_1_" points="714.3,539 714.3,1239 14.3,1239 			"/>
		</defs>
		<clipPath id="SVGID_00000067218998545214267740000015592143070229518243_">
			<use xlink:href="#SVGID_1_"  style="overflow:visible;"/>
		</clipPath>
	</g>
	<g>
		<defs>
			<polyline id="SVGID_00000019650149315272712420000008779352894985533579_" points="744.4,539 744.4,1239 44.4,1239 			"/>
		</defs>
		<clipPath id="SVGID_00000044887174859975634050000009957151331796512397_">
			<use xlink:href="#SVGID_00000019650149315272712420000008779352894985533579_"  style="overflow:visible;"/>
		</clipPath>
	</g>
	<g>
		<defs>
			<polyline id="SVGID_00000142868588188171533700000017552671072377057447_" points="747.6,539 747.6,1239 47.6,1239 			"/>
		</defs>
		<clipPath id="SVGID_00000161616289492568369190000004051189980296935081_">
			<use xlink:href="#SVGID_00000142868588188171533700000017552671072377057447_"  style="overflow:visible;"/>
		</clipPath>
	</g>
	<g>
		<defs>
			<polyline id="SVGID_00000176756708369621325460000012402778921086981053_" points="702,543.7 702,1243.7 2,1243.7 			"/>
		</defs>
		<clipPath id="SVGID_00000021801480065909798930000016551951765004322724_">
			<use xlink:href="#SVGID_00000176756708369621325460000012402778921086981053_"  style="overflow:visible;"/>
		</clipPath>
	</g>
	<g>
		<defs>
			<polyline id="SVGID_00000049942226051551533830000009955621186916026785_" points="714,543.7 714,1243.7 14,1243.7 			"/>
		</defs>
		<clipPath id="SVGID_00000153688220024199461490000010860588537997554109_">
			<use xlink:href="#SVGID_00000049942226051551533830000009955621186916026785_"  style="overflow:visible;"/>
		</clipPath>
	</g>
	<g>
		<defs>
			<polyline id="SVGID_00000028319312480773373430000009292088190388329892_" points="719.6,543.7 719.6,1243.7 19.6,1243.7 			"/>
		</defs>
		<clipPath id="SVGID_00000128485462026964319530000016854701896325069226_">
			<use xlink:href="#SVGID_00000028319312480773373430000009292088190388329892_"  style="overflow:visible;"/>
		</clipPath>
	</g>
	<g>
		<defs>
			<polyline id="SVGID_00000167397326762783147780000001691018521199999876_" points="724.4,543.7 724.4,1243.7 24.4,1243.7 			"/>
		</defs>
		<clipPath id="SVGID_00000163763603223256377190000011284129398173866631_">
			<use xlink:href="#SVGID_00000167397326762783147780000001691018521199999876_"  style="overflow:visible;"/>
		</clipPath>
	</g>
	<g>
		<defs>
			<polyline id="SVGID_00000170963594752853370580000011551136295406920083_" points="728.3,543.7 728.3,1243.7 28.3,1243.7 			"/>
		</defs>
		<clipPath id="SVGID_00000069361627467508080490000001180341270560554411_">
			<use xlink:href="#SVGID_00000170963594752853370580000011551136295406920083_"  style="overflow:visible;"/>
		</clipPath>
	</g>
	<g>
		<defs>
			<polyline id="SVGID_00000176005570382834054250000008662540535961728702_" points="743.2,543.7 743.2,1243.7 43.2,1243.7 			"/>
		</defs>
		<clipPath id="SVGID_00000147221105448503532020000010243733673076987327_">
			<use xlink:href="#SVGID_00000176005570382834054250000008662540535961728702_"  style="overflow:visible;"/>
		</clipPath>
	</g>
	<g>
		<defs>
			<polyline id="SVGID_00000119078698253552373720000006382309301039153313_" points="745.5,543.7 745.5,1243.7 45.5,1243.7 			"/>
		</defs>
		<clipPath id="SVGID_00000183249109296101717090000006143265116637186211_">
			<use xlink:href="#SVGID_00000119078698253552373720000006382309301039153313_"  style="overflow:visible;"/>
		</clipPath>
	</g>
	<g>
		<defs>
			<polyline id="SVGID_00000178894552632798994570000015972537612197553332_" points="750.3,543.7 750.3,1243.7 50.3,1243.7 			"/>
		</defs>
		<clipPath id="SVGID_00000033370407211421099240000008132683388195219618_">
			<use xlink:href="#SVGID_00000178894552632798994570000015972537612197553332_"  style="overflow:visible;"/>
		</clipPath>
	</g>
	<g>
		<defs>
			<polyline id="SVGID_00000004543177226698240020000009136498512553623984_" points="756.2,543.7 756.2,1243.7 56.2,1243.7 			"/>
		</defs>
		<clipPath id="SVGID_00000111164662885159591500000015596159673889360564_">
			<use xlink:href="#SVGID_00000004543177226698240020000009136498512553623984_"  style="overflow:visible;"/>
		</clipPath>
	</g>
</g>
</svg>
